<!--?xml version="1.0" encoding="utf-8"?-->
<!-- Generator: Adobe Illustrator 18.1.1, SVG Export Plug-In . SVG Version: 6.00 Build 0)  -->

<svg version="1.1" id="_x31_0" xmlns="http://www.w3.org/2000/svg" xmlns:xlink="http://www.w3.org/1999/xlink" x="0px" y="0px" viewBox="0 0 512 512" style="width: 32px; height: 32px; opacity: 1;" xml:space="preserve">
<style type="text/css">
	.st0{fill:#374149;}
</style>
<g>
	<path class="st0" d="M433.212,61.819C385.425,21.954,322.49,0,256,0C189.51,0,126.575,21.954,78.784,61.819
		C28.149,104.061,0.264,161.076,0.264,222.361c0,98.032,74.15,183.935,179.725,212.394l28.889,50.038
		C218.597,501.628,236.56,512,256,512c19.437,0,37.402-10.376,47.119-27.206l28.888-50.038
		c105.575-28.459,179.729-114.358,179.729-212.394C511.736,161.076,483.848,104.061,433.212,61.819z M444.158,282.002
		c-1.682,3.692-3.45,7.348-5.428,10.907c-1.257,2.251-2.704,4.413-4.074,6.61c-1.222,1.966-2.358,3.976-3.669,5.896
		c-1.65,2.411-3.496,4.722-5.287,7.063c-1.257,1.642-2.419,3.336-3.742,4.94c-1.573,1.912-3.317,3.711-4.983,5.565
		c-1.76,1.958-3.446,3.965-5.307,5.857c-1.054,1.074-2.22,2.065-3.305,3.114c-2.669,2.579-5.33,5.17-8.183,7.609
		c-0.098,0.086-0.202,0.16-0.3,0.242c-27.476,23.417-63.091,40.166-103.034,47.034l-27.23,47.162l-13.662,23.503l-40.802-70.666
		c-39.858-6.853-75.395-23.55-102.843-46.886c-0.164-0.137-0.343-0.262-0.507-0.402c-2.739-2.346-5.291-4.839-7.863-7.317
		c-1.194-1.151-2.47-2.24-3.629-3.418c-1.729-1.76-3.294-3.629-4.941-5.447c-1.79-1.986-3.66-3.926-5.35-5.974
		c-1.19-1.444-2.232-2.978-3.371-4.453c-1.924-2.498-3.891-4.975-5.654-7.554c-1.198-1.752-2.229-3.59-3.348-5.382
		c-1.487-2.361-3.036-4.694-4.386-7.118c-1.908-3.434-3.602-6.962-5.233-10.516c-0.378-0.816-0.835-1.596-1.194-2.416
		c-7.863-17.966-12.159-37.364-12.159-57.597c0-92.756,90.138-167.948,201.328-167.948c111.186,0,201.324,75.192,201.324,167.948
		c0,20.237-4.297,39.639-12.163,57.609C444.856,280.66,444.47,281.316,444.158,282.002z" style="fill: rgb(255, 255, 255);"></path>
	<path class="st0" d="M154.46,201.788c-15.051,0-27.254,12.202-27.254,27.254c0,15.054,12.202,27.253,27.254,27.253
		c15.054,0,27.257-12.198,27.257-27.253C181.717,213.99,169.515,201.788,154.46,201.788z" style="fill: rgb(255, 255, 255);"></path>
	<path class="st0" d="M256,201.788c-15.055,0-27.258,12.202-27.258,27.254c0,15.054,12.202,27.253,27.258,27.253
		c15.05,0,27.253-12.198,27.253-27.253C283.253,213.99,271.051,201.788,256,201.788z" style="fill: rgb(255, 255, 255);"></path>
	<path class="st0" d="M357.536,201.788c-15.055,0-27.258,12.202-27.258,27.254c0,15.054,12.202,27.253,27.258,27.253
		c15.05,0,27.253-12.198,27.253-27.253C384.789,213.99,372.587,201.788,357.536,201.788z" style="fill: rgb(255, 255, 255);"></path>
</g>
</svg>
